<?xml version="1.0" encoding="utf-8"?>
<!-- Generator: Adobe Illustrator 22.0.0, SVG Export Plug-In . SVG Version: 6.00 Build 0)  -->
<svg version="1.1" id="Layer_1" xmlns="http://www.w3.org/2000/svg" xmlns:xlink="http://www.w3.org/1999/xlink" x="0px" y="0px"
	 viewBox="0 0 350 150" style="enable-background:new 0 0 350 150;" xml:space="preserve">
<style type="text/css">
	.st0{fill:#024569;}
	.st1{fill:#45ABE0;}
</style>
<g>
	<path class="st0" d="M179.7,32c-1.4,0.3-2.4,0.7-3,1c-0.6,0.3-1.1,0.7-1.5,1.2c-0.4,0.5-0.6,1.2-0.8,2.2c-0.2,1-0.3,2.5-0.3,4.5
		v38.5c0,2,0.1,3.4,0.2,4.4c0.1,0.9,0.4,1.6,0.7,2.2s0.8,1,1.5,1.3c0.6,0.4,1.7,0.7,3.1,1.1v2.2h-19.5v-2.2c1.8-0.4,3-0.9,3.7-1.4
		c0.7-0.5,1.2-1.3,1.4-2.4c0.2-1,0.4-2.8,0.4-5.2v-17c0-4.5,0.1-9,0.2-13.6c0.1-4.6,0.3-7.7,0.5-9.4h-0.8L147,83.5h-5.4l-17.2-44.8
		h-0.8c0.2,1.8,0.3,5.1,0.4,9.8c0.1,4.7,0.2,9.6,0.2,14.6v16.3c0,2,0.1,3.4,0.2,4.4c0.1,0.9,0.4,1.6,0.7,2.2s0.8,1,1.5,1.3
		c0.6,0.4,1.7,0.7,3.1,1.1v2.2h-17.1v-2.2c1.9-0.5,3.2-1,3.9-1.6c0.7-0.6,1.1-1.4,1.3-2.5c0.2-1.1,0.3-2.7,0.3-4.9V41
		c0-2-0.1-3.5-0.2-4.5c-0.2-0.9-0.4-1.7-0.8-2.2c-0.4-0.5-0.8-0.9-1.4-1.2c-0.6-0.3-1.6-0.7-3-1v-2.2h16.7l16.4,43.3l18.1-43.3h15.8
		V32z"/>
	<path class="st0" d="M205.3,64.2v15.1c0,2.1,0.1,3.7,0.3,4.7c0.2,1,0.4,1.7,0.8,2.2c0.3,0.5,0.8,0.9,1.4,1.2c0.6,0.3,1.6,0.7,3,1
		v2.2H191v-2.2c1.9-0.5,3.2-1,3.9-1.6c0.7-0.6,1.1-1.4,1.3-2.5c0.2-1.1,0.3-2.7,0.3-4.9V41c0-2-0.1-3.5-0.2-4.5
		c-0.2-0.9-0.4-1.7-0.8-2.2c-0.4-0.5-0.8-0.9-1.4-1.2c-0.6-0.3-1.6-0.7-3-1v-2.2h23.2c7.3,0,12.8,1.3,16.4,3.8
		c3.6,2.5,5.4,6.4,5.4,11.8c0,4.1-1.2,7.5-3.5,10.4c-2.4,2.8-5.9,5.1-10.6,6.7v0.4c1.9,0.7,3.5,1.8,4.9,3.2c1.4,1.4,2.9,3.5,4.5,6.4
		l4.2,7.3c1.2,2.1,2.3,3.8,3.1,4.9c0.9,1.1,1.8,2,2.7,2.6c0.9,0.6,2.1,1,3.6,1.2v2.2h-13c-1.2-1.6-2.3-3.3-3.4-5.1
		c-1.1-1.8-2.1-3.6-3.1-5.5l-4.1-7.4c-1.2-2.3-2.3-3.9-3.1-5c-0.8-1.1-1.5-1.8-2.2-2.2c-0.7-0.4-1.4-0.7-2.2-0.9
		c-0.8-0.2-1.9-0.2-3.4-0.2H205.3z M205.3,34v26.4h5.3c2.7,0,4.9-0.2,6.6-0.6c1.7-0.4,3.2-1.1,4.7-2.1c1.4-1,2.6-2.5,3.4-4.3
		c0.9-1.9,1.3-4.1,1.3-6.8c0-2.8-0.5-5.2-1.5-7c-1-1.9-2.6-3.3-4.6-4.3c-2.1-1-4.8-1.5-8.3-1.5C209.4,33.8,207.1,33.8,205.3,34z"/>
	<path class="st0" d="M264.9,79.5c0,2,0.1,3.4,0.2,4.4c0.1,0.9,0.4,1.6,0.7,2.2s0.8,1,1.5,1.3c0.6,0.4,1.7,0.7,3.1,1.1v2.2h-19.8
		v-2.2c1.9-0.5,3.2-1,3.9-1.6c0.7-0.6,1.1-1.4,1.3-2.5c0.2-1.1,0.3-2.7,0.3-4.9V41c0-2-0.1-3.5-0.2-4.5c-0.2-0.9-0.4-1.7-0.8-2.2
		c-0.4-0.5-0.8-0.9-1.4-1.2c-0.6-0.3-1.6-0.7-3-1v-2.2h19.8V32c-1.4,0.3-2.4,0.7-3,1c-0.6,0.3-1.1,0.7-1.5,1.2
		c-0.4,0.5-0.6,1.2-0.8,2.2c-0.2,1-0.3,2.5-0.3,4.5V79.5z"/>
	<path class="st0" d="M279.1,29.9h50.7v15.5h-4.6c-0.7-2.6-1.4-4.6-2-6.1c-0.7-1.5-1.4-2.6-2.1-3.4c-0.7-0.8-1.6-1.3-2.4-1.6
		c-0.9-0.3-2.1-0.5-3.9-0.5h-5.9v45.6c0,1.8,0.1,3.1,0.3,4.2c0.2,1,0.5,1.9,0.9,2.5c0.4,0.6,1,1.1,1.7,1.4c0.7,0.3,1.8,0.7,3.4,1
		v2.2h-21.4v-2.2c0.9-0.2,1.8-0.4,2.5-0.7c0.7-0.2,1.3-0.5,1.8-0.9c0.5-0.3,0.8-0.8,1.1-1.3c0.3-0.5,0.5-1.3,0.7-2.2
		c0.2-0.9,0.3-2.3,0.3-4.1V33.8h-5.9c-1.5,0-2.7,0.1-3.6,0.4c-1,0.3-1.8,0.8-2.6,1.7c-0.8,0.8-1.6,2-2.2,3.6
		c-0.7,1.6-1.3,3.5-1.9,5.9h-4.6V29.9z"/>
</g>
<g>
	<path class="st0" d="M44.7,119.9h-3.2l-12.3-18.5v18.5h-2.9V96.5h3.2L41.7,115V96.5h3V119.9z"/>
	<path class="st0" d="M59.3,120.3c-2.5,0-4.5-0.8-6-2.3c-1.5-1.6-2.3-3.7-2.3-6.5c0-2.8,0.7-4.9,2.2-6.5c1.5-1.6,3.4-2.4,5.8-2.4
		c2.4,0,4.4,0.8,5.8,2.3c1.4,1.5,2.2,3.7,2.2,6.6v0.7H54.1c0.1,2,0.7,3.4,1.6,4.4c1,1,2.1,1.4,3.5,1.4c1.1,0,2-0.3,2.9-0.8
		c0.8-0.5,1.3-1.3,1.3-2.3h3.1c-0.2,1.8-1,3.1-2.4,4C62.9,119.9,61.2,120.3,59.3,120.3z M63.7,109.8c-0.2-1.6-0.8-2.9-1.6-3.7
		c-0.9-0.8-1.9-1.2-3.1-1.2c-1.2,0-2.2,0.4-3.1,1.2c-0.9,0.8-1.4,2-1.6,3.7H63.7z"/>
	<path class="st0" d="M79.4,120c-0.7,0.1-1.4,0.2-2.2,0.2c-1.2,0-2.1-0.2-2.7-0.7c-0.6-0.4-0.9-1-1.1-1.7c-0.1-0.7-0.2-1.6-0.2-2.8
		v-9.6h-2.1V103h2.1v-4.2h3v4.2H79v2.4h-2.8v9.8c0,1.2,0.1,1.9,0.4,2.2c0.3,0.3,0.7,0.5,1.2,0.5c0.5,0,1,0,1.5-0.1V120z"/>
	<path class="st0" d="M105.7,103l-5.1,17h-2.9L94,107.5l-3.7,12.5h-2.9l-5.1-17h3.3l3.1,12.9l3.8-12.9h2.8l3.8,12.9l3.1-12.9H105.7z
		"/>
	<path class="st0" d="M117.5,102.6c2.4,0,4.4,0.8,5.8,2.3c1.4,1.5,2.2,3.7,2.2,6.6c0,2.8-0.7,5-2.2,6.6c-1.4,1.6-3.4,2.3-5.8,2.3
		c-2.4,0-4.3-0.8-5.8-2.3c-1.4-1.6-2.2-3.7-2.2-6.6c0-2.8,0.7-5,2.2-6.6C113.2,103.3,115.1,102.6,117.5,102.6z M117.5,118
		c1.4,0,2.6-0.5,3.5-1.6c0.9-1.1,1.3-2.7,1.3-4.9c0-2.2-0.4-3.8-1.3-4.9c-0.9-1.1-2.1-1.6-3.5-1.6c-1.4,0-2.6,0.5-3.5,1.6
		c-0.9,1.1-1.3,2.7-1.3,4.9c0,2.2,0.4,3.8,1.3,4.9S116.1,118,117.5,118z"/>
	<path class="st0" d="M138,120c-0.7,0.1-1.4,0.2-2.2,0.2c-1.2,0-2.1-0.2-2.7-0.7c-0.6-0.4-0.9-1-1.1-1.7c-0.1-0.7-0.2-1.6-0.2-2.8
		v-9.6h-2.1V103h2.1v-4.2h3v4.2h2.8v2.4h-2.8v9.8c0,1.2,0.1,1.9,0.4,2.2c0.3,0.3,0.7,0.5,1.2,0.5c0.5,0,1,0,1.5-0.1V120z"/>
	<path class="st0" d="M157,119.9h-3.6l-5.5-8.6l-1.9,1.9v6.8h-3V96.5h3v13.3l6.5-6.8h3.8l-6.4,6.3L157,119.9z"/>
	<path class="st0" d="M182.4,120.3c-3.3,0-5.8-0.7-7.4-2.2c-1.6-1.5-2.5-3.4-2.6-5.7h3c0.2,1.7,0.9,3,2.2,3.9
		c1.3,0.8,2.9,1.3,4.7,1.3c1.7,0,3.1-0.4,4.2-1.1c1.1-0.7,1.6-1.7,1.6-2.9c0-1.3-0.5-2.2-1.6-2.8c-1.1-0.6-3-1.2-5.7-1.7
		c-2.7-0.6-4.6-1.4-5.8-2.4c-1.2-1-1.8-2.4-1.8-4c0-1.9,0.8-3.5,2.3-4.7c1.5-1.2,3.5-1.8,6.1-1.8c2.6,0,4.8,0.6,6.4,1.8
		c1.6,1.2,2.5,3,2.6,5.2h-3c-0.3-2.8-2.3-4.3-5.8-4.3c-1.7,0-3.1,0.3-4,1c-0.9,0.7-1.4,1.5-1.4,2.6c0,1,0.4,1.7,1.1,2.2
		c0.8,0.5,2.2,1,4.3,1.4c2.1,0.5,3.7,0.9,5,1.4c1.2,0.4,2.3,1.1,3.2,2.1c0.9,0.9,1.3,2.2,1.3,3.8c0,2-0.8,3.7-2.4,5
		C187.1,119.7,185,120.3,182.4,120.3z"/>
	<path class="st0" d="M204.4,102.6c2.4,0,4.4,0.8,5.8,2.3c1.4,1.5,2.2,3.7,2.2,6.6c0,2.8-0.7,5-2.2,6.6c-1.4,1.6-3.4,2.3-5.8,2.3
		c-2.4,0-4.3-0.8-5.8-2.3c-1.4-1.6-2.2-3.7-2.2-6.6c0-2.8,0.7-5,2.2-6.6C200.1,103.3,202,102.6,204.4,102.6z M204.4,118
		c1.4,0,2.6-0.5,3.5-1.6c0.9-1.1,1.3-2.7,1.3-4.9c0-2.2-0.4-3.8-1.3-4.9c-0.9-1.1-2.1-1.6-3.5-1.6c-1.4,0-2.6,0.5-3.5,1.6
		c-0.9,1.1-1.3,2.7-1.3,4.9c0,2.2,0.4,3.8,1.3,4.9S203,118,204.4,118z"/>
	<path class="st0" d="M221.3,119.9h-3V96.5h3V119.9z"/>
	<path class="st0" d="M239,117.8c-1.5,1.7-3.2,2.6-5.1,2.6c-3.8,0-5.7-2.1-5.7-6.3V103h3v11c0,1.4,0.2,2.4,0.7,3
		c0.5,0.6,1.3,0.9,2.4,0.9c1.7,0,3.2-0.9,4.6-2.7V103h3v17h-3V117.8z"/>
	<path class="st0" d="M255.6,120c-0.7,0.1-1.4,0.2-2.2,0.2c-1.2,0-2.1-0.2-2.7-0.7c-0.6-0.4-0.9-1-1.1-1.7c-0.1-0.7-0.2-1.6-0.2-2.8
		v-9.6h-2.1V103h2.1v-4.2h3v4.2h2.8v2.4h-2.8v9.8c0,1.2,0.1,1.9,0.4,2.2c0.3,0.3,0.7,0.5,1.2,0.5c0.5,0,1,0,1.5-0.1V120z"/>
	<path class="st0" d="M263.7,99.7h-3v-3.3h3V99.7z M263.7,119.9h-3v-17h3V119.9z"/>
	<path class="st0" d="M277.5,102.6c2.4,0,4.4,0.8,5.8,2.3c1.4,1.5,2.2,3.7,2.2,6.6c0,2.8-0.7,5-2.2,6.6c-1.4,1.6-3.4,2.3-5.8,2.3
		c-2.4,0-4.3-0.8-5.8-2.3c-1.4-1.6-2.2-3.7-2.2-6.6c0-2.8,0.7-5,2.2-6.6C273.2,103.3,275.1,102.6,277.5,102.6z M277.5,118
		c1.4,0,2.6-0.5,3.5-1.6s1.3-2.7,1.3-4.9c0-2.2-0.4-3.8-1.3-4.9c-0.9-1.1-2.1-1.6-3.5-1.6c-1.4,0-2.6,0.5-3.5,1.6
		c-0.9,1.1-1.3,2.7-1.3,4.9c0,2.2,0.4,3.8,1.3,4.9S276.1,118,277.5,118z"/>
	<path class="st0" d="M294.4,105.1c1.5-1.7,3.2-2.5,5.1-2.5c3.8,0,5.7,2.1,5.7,6.3v11.1h-3v-11c0-1.4-0.2-2.4-0.7-3
		c-0.5-0.6-1.3-0.9-2.4-0.9c-1.5,0-3.1,0.9-4.6,2.7v12.2h-3v-17h3V105.1z"/>
	<path class="st0" d="M318.2,120.3c-4.6,0-7.1-1.8-7.3-5.5h3c0,2.1,1.4,3.1,4.2,3.1c1.2,0,2.2-0.3,2.9-0.8c0.7-0.5,1-1.2,1-1.9
		c0-0.8-0.3-1.3-1-1.6c-0.6-0.3-2-0.7-4-1.2c-2-0.5-3.5-1.1-4.4-1.7c-0.9-0.6-1.4-1.7-1.4-3.3c0-1.4,0.6-2.6,1.7-3.5
		c1.1-0.9,2.7-1.4,4.6-1.4c4.4,0,6.7,1.6,6.8,4.8h-3c-0.1-1.6-1.3-2.4-3.6-2.4c-1,0-1.9,0.2-2.5,0.6c-0.7,0.4-1,0.9-1,1.7
		c0,0.7,0.3,1.1,0.8,1.4c0.5,0.3,1.8,0.7,3.8,1.2c2.1,0.5,3.6,1.1,4.6,1.7c1,0.7,1.5,1.8,1.5,3.4c0,1.5-0.6,2.8-1.8,3.8
		C321.9,119.8,320.3,120.3,318.2,120.3z"/>
</g>
<g>
	<g>
		<circle class="st0" cx="65.1" cy="63.6" r="4.7"/>
		<polygon class="st0" points="65,63.5 55.9,90.1 73.8,90.1 		"/>
	</g>
	<g>
		<path class="st1" d="M64.9,45.1h-0.2c-0.8,0-1.5-0.7-1.5-1.5v-13c0-0.8,0.7-1.5,1.5-1.5h0.2c0.8,0,1.5,0.7,1.5,1.5v13
			C66.5,44.4,65.8,45.1,64.9,45.1z"/>
		<path class="st1" d="M71.2,48.6H71c-0.8,0-1.5-0.7-1.5-1.5v-13c0-0.8,0.7-1.5,1.5-1.5h0.2c0.8,0,1.5,0.7,1.5,1.5v13
			C72.7,47.9,72,48.6,71.2,48.6z"/>
		<path class="st1" d="M77.4,42.5h-0.2c-0.8,0-1.5-0.7-1.5-1.5v-8.5c0-0.8,0.7-1.5,1.5-1.5h0.2c0.8,0,1.5,0.7,1.5,1.5V41
			C79,41.8,78.3,42.5,77.4,42.5z"/>
		<path class="st1" d="M58.5,48.9h-0.2c-0.8,0-1.5-0.7-1.5-1.5v-13c0-0.8,0.7-1.5,1.5-1.5h0.2c0.8,0,1.5,0.7,1.5,1.5v13
			C60.1,48.3,59.4,48.9,58.5,48.9z"/>
		<path class="st1" d="M52.1,42.5H52c-0.8,0-1.5-0.7-1.5-1.5v-8.5c0-0.8,0.7-1.5,1.5-1.5l0.2,0c0.8,0,1.5,0.7,1.5,1.5V41
			C53.6,41.8,53,42.5,52.1,42.5z"/>
	</g>
</g>
<path class="st1" d="M30.7,29.3l4.4,4.3c0,0-20.1,22.7-0.1,48l-4.7,4.1C30.2,85.7,7.4,59.3,30.7,29.3z"/>
<path class="st0" d="M39.2,33.4l6.5,6.6c0,0-16.8,15.9-0.2,35l-6.5,6.6C38.9,81.7,16.2,59.1,39.2,33.4z"/>
<path class="st1" d="M45.5,71L59,58.1l-13-13.9C45.9,44.2,35.8,56.3,45.5,71z"/>
<path class="st1" d="M100.1,85.9l-4.5-4.2c0,0,19.5-23.1-1-48l4.6-4.2C99.2,29.4,122.7,55.3,100.1,85.9z"/>
<path class="st0" d="M91.5,81.9l-6.7-6.5c0,0,16.5-16.3-0.6-35l6.4-6.8C90.7,33.6,113.9,55.7,91.5,81.9z"/>
<path class="st1" d="M84.3,44.5L71.2,57.7l13.4,13.6C84.5,71.3,94.3,58.9,84.3,44.5z"/>
</svg>
